<?xml version="1.0" encoding="utf-8"?>
<svg viewBox="215.0362 188.0492 48.264 58.6592" width="48.264" height="58.659" xmlns="http://www.w3.org/2000/svg">
  <path fill="#111111" d="M 11.1 14.1 L 14.12 18.72 C 14.267 18.96 14.273 19.2 14.14 19.44 C 14.087 19.547 14.003 19.633 13.89 19.7 C 13.777 19.767 13.66 19.8 13.54 19.8 L 11.72 19.8 C 11.6 19.8 11.487 19.77 11.38 19.71 C 11.329 19.681 11.283 19.648 11.244 19.612 L 6.328 11.82 L 8.48 11.82 C 9.653 11.82 10.433 11.487 10.82 10.82 C 10.953 10.607 11.02 10.3 11.02 9.9 C 11.02 9.273 10.813 8.78 10.4 8.42 C 9.973 8.033 9.36 7.84 8.56 7.84 L 3.817 7.84 L 2.058 5.052 C 2.139 5.017 2.227 5 2.32 5 L 8.74 5 C 10.3 5 11.547 5.44 12.48 6.32 C 13.453 7.2 13.94 8.393 13.94 9.9 C 13.94 10.873 13.727 11.703 13.3 12.39 C 12.873 13.077 12.253 13.6 11.44 13.96 Z" transform="matrix(3.9634611606597896, 0, 0, 3.9634611606597896, 206.8793443708064, 168.23189043451134)"/>
</svg>